Coordinates
version=1
nRows=21
nColumns=28
inDegrees=yes

Units are S.I. units (second, meters, Newtons, ...)
Angles are in degrees.

endheader
time	pelvis_tilt	pelvis_list	pelvis_rotation	pelvis_tx	pelvis_ty	pelvis_tz	hip_flexion_r	hip_adduction_r	hip_rotation_r	knee_angle_r	ankle_angle_r	subtalar_angle_r	mtp_angle_r	hip_flexion_l	hip_adduction_l	hip_rotation_l	knee_angle_l	socket_flexion	socket_adduction	socket_rotation	socket_tx	socket_ty	socket_tz	foot_flex	lumbar_extension	lumbar_bending	lumbar_rotation
      0.63333333	     -4.33958192	      0.42809730	     10.15507453	     -0.04265536	      0.98586447	      0.28390125	     30.31248785	     -3.07643381	     -9.25143645	     -9.54427152	     18.93617585	    -14.29755373	    -14.59592816	    -16.16727910	     -2.37770661	     18.68141502	     -4.82255033	      0.00000000	      0.00000000	      0.00000000	      0.00000000	      0.00468579	      0.00000000	      7.87279674	     -6.56475815	     -0.25293243	     -8.34801147
      0.63750000	     -4.15245385	      0.22603208	     10.17335428	     -0.03601064	      0.98508162	      0.28389931	     30.39379734	     -2.82570249	     -9.20783245	    -10.48019990	     18.52751680	    -14.37886885	    -14.48167771	    -16.57400356	     -2.63545832	     18.53206468	     -5.12027307	      0.00000000	      0.00000000	      0.00000000	      0.00000000	      0.00468365	      0.00000000	      7.87532204	     -6.66776589	      0.15864518	     -8.52638243
      0.64166667	     -4.00828333	      0.10366469	     10.16243221	     -0.02938545	      0.98426625	      0.28400013	     30.53303978	     -2.64290705	     -9.07025497	    -11.45993841	     18.14904436	    -14.37198902	    -14.31303466	    -16.92589451	     -2.79241128	     18.40291471	     -5.45636693	      0.00000000	      0.00000000	      0.00000000	      0.00000000	      0.00474240	      0.00000000	      7.81690708	     -6.74263982	      0.44952274	     -8.61865472
      0.64583333	     -3.87452833	      0.00052313	     10.11329331	     -0.02280303	      0.98343541	      0.28419085	     30.72183732	     -2.46881498	     -8.93239962	    -12.52768302	     17.75850054	    -14.29682118	    -14.02436695	    -17.24621289	     -2.90866146	     18.20273093	     -5.84023555	      0.00000000	      0.00000000	      0.00000000	      0.00000000	      0.00479740	      0.00000000	      7.73246925	     -6.81306595	      0.70431869	     -8.66441436
      0.65000000	     -3.78969287	     -0.11406559	     10.18124140	     -0.01628094	      0.98269327	      0.28420661	     30.83340007	     -2.32159117	     -8.66697381	    -13.37842554	     17.46354429	    -14.21175699	    -13.92329468	    -17.43720058	     -3.04687172	     18.21374259	     -6.32427691	      0.00000000	      0.00000000	      0.00000000	      0.00000000	      0.00482609	      0.00000000	      7.61563594	     -6.84878173	      0.96919449	     -8.66657303
      0.65416667	     -3.62090586	     -0.10474895	     10.07569922	     -0.00926604	      0.98179482	      0.28432500	     31.15020226	     -2.38334656	     -9.23237912	    -14.76674791	     14.89964897	    -13.93815256	     -3.51016940	    -17.85388219	     -3.02340005	     17.89719150	     -6.69297504	      0.00000000	      0.00000000	      0.00000000	      0.00000000	      0.00502800	      0.00000000	      7.48921062	     -6.91566953	      1.09370303	     -8.66150210
      0.65833333	     -3.52825238	     -0.23621200	     10.11186760	     -0.00277344	      0.98109518	      0.28440007	     31.27838873	     -2.21265812	     -9.01220869	    -15.67299287	     14.58481518	    -13.90274506	     -3.52879146	    -18.00372513	     -3.15683081	     17.85772345	     -7.26729277	      0.00000000	      0.00000000	      0.00000000	      0.00000000	      0.00502501	      0.00000000	      7.33164828	     -6.95971677	      1.37587694	     -8.67543529
      0.66250000	     -3.42153715	     -0.37079794	     10.08161423	      0.00386269	      0.98038047	      0.28456356	     31.44856585	     -2.02748891	     -8.86869088	    -16.70559578	     14.20648649	    -13.86895332	     -3.53570225	    -18.18281001	     -3.27285424	     17.68107681	     -7.84866176	      0.00000000	      0.00000000	      0.00000000	      0.00000000	      0.00499339	      0.00000000	      7.14575161	     -6.99158487	      1.66063718	     -8.69713427
      0.66666667	     -3.31840912	     -0.50071676	      9.81585714	      0.01083522	      0.97957462	      0.28506000	     31.76411218	     -1.79289000	     -8.88329927	    -18.01091089	     13.71049009	    -13.76327533	     -3.40611547	    -18.45122264	     -3.32779409	     17.16733024	     -8.33643096	      0.00000000	      0.00000000	      0.00000000	      0.00000000	      0.00514130	      0.00000000	      6.96478767	     -6.96408316	      1.91820423	     -8.67571574
      0.67083333	     -3.24496016	     -0.64224581	      9.68306686	      0.01760519	      0.97886004	      0.28536055	     31.99480254	     -1.58055807	     -8.75415555	    -19.11270504	     13.34682970	    -13.56670730	     -3.14595470	    -18.57959051	     -3.40555830	     16.84013193	     -8.96873193	      0.00000000	      0.00000000	      0.00000000	      0.00000000	      0.00517288	      0.00000000	      6.73179897	     -6.94285526	      2.19382087	     -8.55436380
      0.67500000	     -3.13854329	     -0.79590698	      9.57057069	      0.02436674	      0.97827303	      0.28564879	     32.17055571	     -1.36713381	     -8.69133389	    -20.18657718	     12.97764912	    -13.45152892	     -2.97674447	    -18.70636219	     -3.50216558	     16.56097732	     -9.64613647	      0.00000000	      0.00000000	      0.00000000	      0.00000000	      0.00521092	      0.00000000	      6.48753140	     -6.95738269	      2.48068298	     -8.49431520
      0.67916667	     -3.08770213	     -0.91327028	      9.47521606	      0.03139102	      0.97760428	      0.28577315	     32.38675136	     -1.29108925	     -8.93176354	    -21.22707420	     11.53042498	    -13.20767338	      2.72516835	    -18.76199072	     -3.54207875	     16.26057162	    -10.39545957	      0.00000000	      0.00000000	      0.00000000	      0.00000000	      0.00532876	      0.00000000	      6.19468064	     -6.86848054	      2.71063001	     -8.31975201
      0.68333333	     -2.95894869	     -1.07841124	      9.40475129	      0.03812275	      0.97724731	      0.28601306	     32.44765607	     -1.07505888	     -8.85298959	    -22.15718551	     11.24367232	    -13.19503922	      2.71009700	    -18.82218067	     -3.65087474	     16.01327033	    -11.20557188	      0.00000000	      0.00000000	      0.00000000	      0.00000000	      0.00545426	      0.00000000	      5.88759045	     -6.91997485	      3.01877633	     -8.30988960
      0.68750000	     -2.83924900	     -1.23434649	      9.39429677	      0.04483920	      0.97704615	      0.28616799	     32.42042084	     -0.87555562	     -8.72780819	    -22.91849407	     11.03606844	    -13.14562973	      2.70750422	    -18.80179508	     -3.75371149	     15.82566276	    -12.12572240	      0.00000000	      0.00000000	      0.00000000	      0.00000000	      0.00565251	      0.00000000	      5.53328052	     -6.95431109	      3.30404419	     -8.28257554
      0.69166667	     -2.69289781	     -1.48041939	      9.08258631	      0.05189018	      0.97656636	      0.28668977	     32.57044243	     -0.52408083	     -8.82085660	    -24.04367351	     10.63782722	    -13.01902465	      2.75533908	    -18.92788284	     -3.87845529	     15.19361774	    -12.92566218	      0.00000000	      0.00000000	      0.00000000	      0.00000000	      0.00569801	      0.00000000	      5.21047704	     -6.97604697	      3.69885726	     -8.18144605
      0.69583333	     -2.57111823	     -1.63755894	      9.06429385	      0.05863959	      0.97651465	      0.28687019	     32.48527292	     -0.32017291	     -8.71138193	    -24.72802932	     10.48718520	    -12.95243235	      2.77512219	    -18.84205122	     -3.97466048	     14.98699861	    -13.95101418	      0.00000000	      0.00000000	      0.00000000	      0.00000000	      0.00600675	      0.00000000	      4.81806270	     -7.00646493	      3.98471289	     -8.12531531
      0.70000000	     -2.43284089	     -1.81774183	      8.96621185	      0.06541846	      0.97640243	      0.28711918	     32.43976446	     -0.08756497	     -8.70050473	    -25.51346150	     10.29565382	    -12.88633728	      2.79308513	    -18.77261810	     -4.07111005	     14.64373460	    -14.99998762	      0.00000000	      0.00000000	      0.00000000	      0.00000000	      0.00625168	      0.00000000	      4.42553095	     -7.05172659	      4.29141947	     -8.07333376
      0.70416667	     -2.29320987	     -1.99948178	      8.84386165	      0.07231151	      0.97636413	      0.28742524	     32.37469144	      0.15229469	     -8.72456120	    -26.28775115	     10.11361310	    -12.80754169	      2.81610589	    -18.68978792	     -4.16596287	     14.23811207	    -16.07060712	      0.00000000	      0.00000000	      0.00000000	      0.00000000	      0.00660944	      0.00000000	      4.03119872	     -7.08734437	      4.60410672	     -8.01417487
      0.70833333	     -2.13137113	     -2.30996939	      8.44153479	      0.07957173	      0.97605403	      0.28801948	     32.41196664	      0.57901829	     -8.94452610	    -27.27899639	      9.84403511	    -12.55580239	      2.92492187	    -18.74929357	     -4.33031127	     13.39152399	    -17.01653169	      0.00000000	      0.00000000	      0.00000000	      0.00000000	      0.00675120	      0.00000000	      3.72992852	     -7.08661594	      5.05471214	     -7.82769004
      0.71250000	     -2.00315119	     -2.46609023	      8.39541996	      0.08636673	      0.97624400	      0.28824617	     32.21410801	      0.79414426	     -8.87595272	    -27.81006966	      9.78579383	    -12.45414148	      2.97214345	    -18.55072737	     -4.41576315	     13.11178969	    -18.21082014	      0.00000000	      0.00000000	      0.00000000	      0.00000000	      0.00722136	      0.00000000	      3.27540795	     -7.11301523	      5.32138907	     -7.73930996
      0.71666667	     -1.80504096	     -2.87994691	      7.98223488	      0.09363721	      0.97617953	      0.28884768	     32.05100952	      1.36586475	     -9.01260400	    -28.48177841	      9.74064340	    -11.83562779	      3.45949588	    -18.57179037	     -4.69416984	     12.17919642	    -19.26014671	      0.00000000	      0.00000000	      0.00000000	      0.00000000	      0.00738280	      0.00000000	      2.94005295	     -7.16854342	      5.85431562	     -7.13451369
